{"title":"Donato and Daughter, Dead to Rights 1993 DVDrip English Klam","uid":6054173,"size":1053965256,"categoryP":"video","categoryS":"movies","magnet":"?xt=urn:btih:6cf1dd3b2516e0a556732372dc81d17ae5b866fe&amp;dn=Donato+and+Daughter%2C+Dead+to+Rights+1993+DVDrip+English+Klam&amp;tr=udp%3A%2F%2Ftracker.openbittorrent.com%3A80&amp;tr=udp%3A%2F%2Fopen.demonii.com%3A1337&amp;tr=udp%3A%2F%2Ftracker.coppersurfer.tk%3A6969&amp;tr=udp%3A%2F%2Fexodus.desync.com%3A6969","seeders":1,"leechers":0,"uploader":"Klambake","files":-1,"time":1292843673,"description":"With: Charles Bronson, Dana Delany and Xander Berkeley\n\nDena Donato (Delaney) works for the police and will be taking over a team that hunts a serial killer who kills nuns. At the urging of her superiors, she takes her father Mike Donato (Bronson) in the team. The research brings them closer together.\n\nGeneral:\n\nComplete name                    : Donato and\\Daughter.avi\nFormat                           : AVI\nFormat/Info                      : Audio Video Interleave\nFile size                        : 1 005 MiB\nDuration                         : 1h 30mn\nOverall bit rate                 : 1 558 Kbps\n\nVideo:\n\nFormat                           : MPEG-4 Visual\nFormat profile                   : Simple@L3\nFormat settings, BVOP            : No\nFormat settings, QPel            : No\nFormat settings, GMC             : No warppoints\nFormat settings, Matrix          : Default (H.263)\nCodec ID                         : XVID\nCodec ID/Hint                    : XviD\nDuration                         : 1h 30mn\nBit rate                         : 1 355 Kbps\nWidth                            : 720 pixels\nHeight                           : 576 pixels\nDisplay aspect ratio             : 5:4\nFrame rate                       : 25.000 fps\nStandard                         : PAL\nColor space                      : YUV\nChroma subsampling               : 4:2:0\nBit depth                        : 8 bits\nScan type                        : Progressive\nBits/(Pixel*Frame)               : 0.131\nStream size                      : 874 MiB (87%)\nWriting library                  : XviD 1.1.2 (UTC 2006-11-01)\n\nAudio:\n\nFormat                           : AC-3\nFormat/Info                      : Audio Coding 3\nMode extension                   : CM (complete main)\nCodec ID                         : 2000\nDuration                         : 1h 30mn\nBit rate mode                    : Constant\nBit rate                         : 192 Kbps\nChannel(s)                       : 2 channels\nChannel positions                : Front: L R\nSampling rate                    : 48.0 KHz\nBit depth                        : 16 bits\nStream size                      : 124 MiB (12%)\nAlignment                        : Aligned on interleaves\nInterleave, duration             : 32 ms (0.80 video frame)","torrent":{"xt":"urn:btih:6cf1dd3b2516e0a556732372dc81d17ae5b866fe","amp;dn":"Donato+and+Daughter%2C+Dead+to+Rights+1993+DVDrip+English+Klam","amp;tr":["udp%3A%2F%2Ftracker.openbittorrent.com%3A80","udp%3A%2F%2Fopen.demonii.com%3A1337","udp%3A%2F%2Ftracker.coppersurfer.tk%3A6969","udp%3A%2F%2Fexodus.desync.com%3A6969"],"infoHash":"6cf1dd3b2516e0a556732372dc81d17ae5b866fe","infoHashBuffer":{"type":"Buffer","data":[108,241,221,59,37,22,224,165,86,115,35,114,220,129,209,122,229,184,102,254]},"announce":[],"urlList":[]}}